<?xml version="1.0" encoding="UTF-8" standalone="no"?>
<!-- Created with Inkscape (http://www.inkscape.org/) -->

<svg
   width="89.294258mm"
   height="28.217888mm"
   viewBox="0 0 89.294258 28.217888"
   version="1.1"
   id="svg1"
   xml:space="preserve"
   xmlns="http://www.w3.org/2000/svg"
   xmlns:svg="http://www.w3.org/2000/svg"><defs
     id="defs1" /><g
     id="layer1"
     transform="translate(-60.204975,-132.36696)"
     style="fill:#151a93;fill-opacity:1"><path
       style="fill:#151a93;fill-opacity:1"
       d="m 60.410036,160.54319 c -0.123306,-0.0536 -0.20493,-0.19485 -0.205061,-0.35485 -9.6e-5,-0.11698 0.05557,-0.22273 0.616545,-1.17123 2.195003,-3.71132 4.846642,-7.13984 7.962905,-10.29588 2.945504,-2.9831 6.032195,-5.48736 9.487523,-7.69731 7.893011,-5.04819 16.879461,-7.98131 26.227702,-8.56055 1.75476,-0.10873 4.3666,-0.12818 5.98311,-0.0446 8.43864,0.43653 16.2896,2.63451 23.622,6.61331 5.57666,3.02607 10.61458,7.03437 14.8653,11.82722 l 0.5284,0.5958 7.6e-4,2.79259 c 4.3e-4,1.58757 -0.01,2.78102 -0.0238,2.76578 -0.0135,-0.0147 -0.21875,-0.28716 -0.45606,-0.60537 -0.77333,-1.03693 -1.72811,-2.21156 -2.5922,-3.18911 -1.56666,-1.77235 -3.38751,-3.5628 -5.1826,-5.09607 -8.3744,-7.15297 -18.91272,-11.44891 -29.901,-12.18914 -2.22298,-0.14975 -4.73518,-0.1495 -6.94267,7.1e-4 -13.963507,0.95015 -26.917648,7.53859 -35.931274,18.27453 -0.722602,0.86067 -2.225171,2.79234 -2.225171,2.86062 0,0.009 1.725231,0.0158 3.833848,0.0158 3.678328,0 3.835743,0.002 3.880555,0.0516 0.04233,0.0468 0.04671,0.2053 0.04671,1.69333 0,1.60409 -0.0013,1.64302 -0.05644,1.69817 -0.05613,0.0561 -0.09333,0.0564 -6.752166,0.0553 -5.685112,-9.4e-4 -6.709482,-0.007 -6.786889,-0.0407 z m 17.056299,-0.002 c -0.729454,-0.14568 -1.337748,-0.64875 -1.615298,-1.3359 -0.133958,-0.33165 -0.156489,-0.5326 -0.146557,-1.3072 0.0085,-0.66126 0.01398,-0.72758 0.07439,-0.89747 0.173384,-0.48755 0.585851,-0.88126 1.074565,-1.0257 0.06667,-0.0197 1.027896,-0.0352 2.810654,-0.0454 2.941614,-0.0168 2.777443,-0.007 2.87538,-0.17271 0.08366,-0.14162 0.04337,-0.32133 -0.09278,-0.41385 -0.0686,-0.0466 -0.274285,-0.0507 -3.23415,-0.0639 -2.538522,-0.0113 -3.173689,-0.0214 -3.225899,-0.0512 -0.03576,-0.0204 -0.08968,-0.0775 -0.119839,-0.127 -0.05065,-0.0831 -0.05483,-0.14694 -0.05483,-0.83781 0,-0.69163 0.0041,-0.75467 0.05499,-0.83807 0.03024,-0.0496 0.08996,-0.11311 0.132702,-0.14111 0.07375,-0.0483 0.268459,-0.0514 3.818403,-0.0593 4.055137,-0.009 4.223555,-0.004 4.621855,0.13289 0.665514,0.22912 1.198093,0.73224 1.461612,1.38076 0.170471,0.41953 0.169003,0.39411 0.169003,2.92561 0,2.13641 -0.0038,2.32255 -0.04899,2.42255 -0.07878,0.1742 -0.204156,0.3119 -0.365213,0.40112 l -0.150243,0.0832 -3.922889,0.005 c -3.226225,0.004 -3.957337,-0.002 -4.116867,-0.0341 z m 5.022801,-2.19719 c 0.07866,-0.0787 0.09595,-0.11732 0.09595,-0.21449 0,-0.0972 -0.01729,-0.13583 -0.09595,-0.21449 l -0.09596,-0.096 h -1.4732 -1.4732 l -0.09596,0.096 c -0.07866,0.0787 -0.09596,0.11732 -0.09596,0.21449 0,0.0972 0.01729,0.13582 0.09596,0.21449 l 0.09596,0.096 h 1.4732 1.4732 z m 7.363178,2.22141 c -0.846761,-0.11364 -1.587248,-0.69242 -1.906762,-1.49037 -0.168359,-0.42046 -0.167582,-0.40606 -0.167466,-3.09996 1.02e-4,-2.38847 0.0017,-2.46252 0.0551,-2.55009 0.123251,-0.20214 0.02598,-0.19204 1.848556,-0.19204 1.855212,0 1.775201,-0.009 1.879617,0.2206 0.05121,0.1128 0.05363,0.21895 0.05423,2.37869 4.42e-4,1.61344 0.0098,2.28809 0.03274,2.35656 0.05275,0.15755 0.164148,0.28136 0.317355,0.35269 0.142742,0.0665 0.154995,0.0672 1.058362,0.0675 0.988165,3e-4 1.061452,-0.008 1.229942,-0.14737 0.211733,-0.17452 0.196939,0.007 0.212666,-2.60402 0.01569,-2.60487 0.0046,-2.46521 0.205089,-2.5748 0.08441,-0.0461 0.220236,-0.0499 1.814041,-0.0499 1.917213,0 1.809616,-0.0107 1.933223,0.19204 0.05363,0.088 0.05499,0.1676 0.0551,3.22885 1.04e-4,3.10536 -5.15e-4,3.14032 -0.05833,3.29485 -0.08176,0.21853 -0.288932,0.4371 -0.511892,0.54005 l -0.17756,0.082 -3.894666,0.003 c -2.142067,0.002 -3.932767,-0.002 -3.979333,-0.008 z m 11.084016,-0.0369 c -0.0506,-0.0308 -0.11733,-0.0975 -0.14832,-0.14806 -0.0556,-0.0907 -0.0563,-0.13688 -0.0491,-3.33754 l 0.007,-3.24555 0.0621,-0.11618 c 0.10017,-0.18724 0.19798,-0.28497 0.36953,-0.36921 l 0.16098,-0.0791 h 6.19478 6.19477 l 0.23989,0.0628 c 0.13194,0.0345 0.36919,0.12752 0.52723,0.20668 0.48589,0.24338 0.89731,0.68049 1.10923,1.17849 0.18897,0.44408 0.18007,0.30048 0.19007,3.06764 0.0101,2.8059 0.0218,2.63295 -0.18676,2.77227 l -0.0959,0.0641 h -1.40785 c -1.55446,0 -1.55268,1.9e-4 -1.6593,-0.17469 -0.0558,-0.0915 -0.057,-0.13691 -0.0571,-2.18753 -7e-5,-1.42505 -0.0101,-2.14069 -0.0314,-2.2399 -0.0361,-0.1683 -0.17227,-0.3381 -0.33963,-0.42348 -0.0983,-0.0502 -0.17296,-0.0544 -0.95555,-0.0544 -0.78259,0 -0.85724,0.004 -0.95555,0.0544 -0.16735,0.0854 -0.30353,0.25518 -0.33963,0.42348 -0.0213,0.0992 -0.0313,0.81485 -0.0314,2.2399 -1e-4,2.05062 -0.001,2.09605 -0.0571,2.18753 -0.10662,0.17488 -0.10484,0.17469 -1.65931,0.17469 h -1.40784 l -0.0959,-0.0641 c -0.20435,-0.13651 -0.19458,-0.0174 -0.19463,-2.37389 -3e-5,-1.50177 -0.009,-2.1445 -0.0323,-2.22091 -0.0442,-0.14751 -0.16972,-0.29167 -0.31533,-0.36216 -0.11212,-0.0543 -0.17074,-0.059 -0.73494,-0.059 -0.54973,0 -0.62412,0.006 -0.71974,0.0544 -0.16735,0.0854 -0.30353,0.25518 -0.33963,0.42348 -0.0213,0.0992 -0.0313,0.81485 -0.0314,2.2399 -1e-4,2.05062 -10e-4,2.09605 -0.0571,2.18753 -0.10661,0.17486 -0.10509,0.1747 -1.65642,0.17459 -1.35215,-1e-4 -1.40842,-0.002 -1.49694,-0.0562 z m 18.48893,0.0146 c -0.25626,-0.0465 -0.37487,-0.0853 -0.60284,-0.19716 -0.30217,-0.14826 -0.4261,-0.2374 -0.6653,-0.47853 -0.33957,-0.34231 -0.54785,-0.73026 -0.64822,-1.2074 -0.0622,-0.29568 -0.0598,-3.79203 0.003,-4.05836 0.11664,-0.49639 0.49024,-0.96228 0.94542,-1.17899 0.42364,-0.20169 0.15726,-0.18979 4.24586,-0.18979 h 3.69711 l 0.18024,0.0651 c 0.49892,0.1802 0.85343,0.59012 0.93266,1.07845 0.039,0.24039 0.0403,2.93922 0.001,3.079 -0.0435,0.15647 -0.14409,0.2858 -0.28287,0.36356 l -0.1259,0.0706 -2.97561,0.008 -2.97561,0.008 -0.0924,0.0705 c -0.16823,0.12832 -0.15273,0.38452 0.03,0.49596 0.0836,0.051 0.20452,0.053 3.19136,0.0537 2.98857,7e-4 3.10886,0.003 3.22252,0.0543 0.20061,0.0911 0.2065,0.11905 0.20638,0.98092 -10e-5,0.70883 -0.004,0.76221 -0.0571,0.84976 -0.11312,0.18553 0.14142,0.17495 -4.13998,0.17215 -3.05268,-0.002 -3.93184,-0.0104 -4.09002,-0.0391 z m 4.72207,-4.60345 c 0.0438,-0.0325 0.0977,-0.11009 0.11978,-0.17253 0.0368,-0.10397 0.0355,-0.12156 -0.0151,-0.20911 -0.1154,-0.19981 -0.0833,-0.19623 -1.68259,-0.1878 l -1.43176,0.008 -0.0922,0.0923 c -0.17221,0.17224 -0.10241,0.44359 0.13197,0.51309 0.0475,0.0141 0.71595,0.0233 1.48824,0.0205 1.37406,-0.005 1.40361,-0.006 1.48167,-0.064 z m 5.16722,4.58701 c -0.20472,-0.10809 -0.19101,0.14496 -0.19101,-3.52563 0,-3.64513 -0.0114,-3.41189 0.17704,-3.60665 0.17723,-0.18311 0.0162,-0.17562 3.77287,-0.17562 2.20693,0 3.48753,0.0104 3.6426,0.0296 0.5798,0.0719 0.99716,0.28149 1.42555,0.71602 0.21618,0.21927 0.2776,0.30371 0.4028,0.55381 0.25287,0.50512 0.26525,0.58355 0.28045,1.77675 0.0147,1.15241 0.008,1.21394 -0.14947,1.35209 l -0.0994,0.0872 h -1.28426 c -1.21896,0 -1.28975,-0.003 -1.39247,-0.0552 -0.11625,-0.0593 -0.24295,-0.19347 -0.29284,-0.31009 -0.0188,-0.044 -0.037,-0.41027 -0.0466,-0.93764 l -0.0158,-0.8655 -0.0849,-0.12074 c -0.0514,-0.073 -0.14028,-0.14923 -0.22503,-0.19284 l -0.1401,-0.0721 h -1.04996 c -1.02329,0 -1.05199,0.002 -1.12964,0.0594 -0.0438,0.0327 -0.10508,0.10252 -0.13613,0.15522 -0.055,0.0933 -0.0568,0.15991 -0.0705,2.52421 -0.0133,2.29104 -0.017,2.43282 -0.0657,2.50708 -0.10369,0.15821 -0.10981,0.15876 -1.73256,0.15741 -1.42641,-0.001 -1.4941,-0.004 -1.59495,-0.0569 z"
       id="path1" /></g></svg>
